<?xml version="1.0" encoding="UTF-8"?>
<svg version="1.1" xmlns="http://www.w3.org/2000/svg" width="211" height="326">
<path d="M0 0 C69.63 0 139.26 0 211 0 C211 107.58 211 215.16 211 326 C141.37 326 71.74 326 0 326 C0 218.42 0 110.84 0 0 Z " fill="#F6F7F2" transform="translate(0,0)"/>
<path d="M0 0 C2.22496341 1.80198859 3.82536864 3.90500739 5.5 6.21484375 C6.675625 7.32859375 6.675625 7.32859375 7.875 8.46484375 C18.00052049 19.07253189 19.92046611 31.10896364 19.703125 45.5078125 C19.52540849 47.87622674 19.17197228 49.94422773 18.5 52.21484375 C17.84 52.21484375 17.18 52.21484375 16.5 52.21484375 C16.314375 53.79265625 16.314375 53.79265625 16.125 55.40234375 C14.62922042 64.52659917 9.21899821 71.85736874 2.5 78.02734375 C-5.34164153 85.50283859 -10.24680842 96.56271534 -11.5 107.21484375 C-12.16 107.21484375 -12.82 107.21484375 -13.5 107.21484375 C-13.63664062 108.36500977 -13.77328125 109.51517578 -13.9140625 110.70019531 C-14.44884111 114.97302946 -15.13890027 119.20711847 -15.875 123.44921875 C-16.14081848 125.00908163 -16.40643714 126.56897856 -16.671875 128.12890625 C-17.08438478 130.54238173 -17.49839428 132.95556753 -17.91601562 135.36816406 C-19.39277318 143.91726054 -20.78180614 152.36144514 -21.2890625 161.03613281 C-21.5 163.21484375 -21.5 163.21484375 -22.5 165.21484375 C-23.25851576 170.19290859 -23.76035137 175.20993031 -24.3125 180.21484375 C-24.39859528 180.9859549 -24.48469055 181.75706604 -24.57339478 182.55154419 C-27.01188715 204.55734855 -28.63611153 226.63811917 -30.30999756 248.71258545 C-30.57514143 252.20442715 -30.84412152 255.69596562 -31.11328125 259.1875 C-31.18973877 260.18144775 -31.26619629 261.17539551 -31.3449707 262.19946289 C-31.39613037 262.86453857 -31.44729004 263.52961426 -31.5 264.21484375 C-31.83 264.21484375 -32.16 264.21484375 -32.5 264.21484375 C-33.33590087 260.50200799 -33.69200879 256.9521339 -33.859375 253.15234375 C-33.9205249 251.90662598 -33.9816748 250.6609082 -34.04467773 249.37744141 C-34.07745819 248.70352356 -34.11023865 248.02960571 -34.14401245 247.33526611 C-34.97062215 230.79783593 -36.39183422 214.32387063 -37.9375 197.83984375 C-38.09248962 196.15616699 -38.09248962 196.15616699 -38.25061035 194.43847656 C-39.49674955 180.96382723 -41.03420513 167.59841078 -43.1791687 154.23657227 C-43.60721485 151.53922603 -43.99584664 148.83687488 -44.37890625 146.1328125 C-44.55389648 144.92334961 -44.55389648 144.92334961 -44.73242188 143.68945312 C-44.95973345 142.11441259 -45.18348514 140.53885554 -45.40429688 138.96289062 C-46.09527676 134.23411767 -47.16628099 129.81294761 -48.5 125.21484375 C-49.01909136 121.91572979 -49.43435699 118.61553712 -49.83984375 115.30078125 C-50.32694083 112.20423909 -50.32694083 112.20423909 -51.9609375 109.79296875 C-53.90408395 106.53795186 -54.46064188 103.254638 -55.1875 99.58984375 C-56.71253554 92.62487535 -59.29133103 87.80998765 -63.890625 82.25390625 C-65.5 80.21484375 -65.5 80.21484375 -65.5 78.21484375 C-66.16 78.21484375 -66.82 78.21484375 -67.5 78.21484375 C-69.21818547 76.25120321 -70.80650165 74.2932748 -72.375 72.21484375 C-73.05272461 71.32442383 -73.05272461 71.32442383 -73.74414062 70.41601562 C-76.89992903 66.19451702 -79.41684426 62.07554047 -81.5 57.21484375 C-81.85191406 56.50972656 -82.20382813 55.80460937 -82.56640625 55.078125 C-86.6080539 42.6826115 -83.46221405 27.84992986 -78.5 16.21484375 C-77.2331899 13.83289211 -75.887623 11.53051376 -74.5 9.21484375 C-73.84 9.21484375 -73.18 9.21484375 -72.5 9.21484375 C-72.27054688 8.63992187 -72.04109375 8.065 -71.8046875 7.47265625 C-70.16107128 4.6283144 -68.20976048 3.10703072 -65.625 1.08984375 C-64.32949219 0.06503906 -64.32949219 0.06503906 -63.0078125 -0.98046875 C-59.67060849 -3.38200809 -57.65032348 -4.78515625 -53.5 -4.78515625 C-53.5 -5.44515625 -53.5 -6.10515625 -53.5 -6.78515625 C-34.42777312 -12.5376412 -16.77921444 -11.31873733 0 0 Z " fill="#D7B56B" transform="translate(135.5,34.78515625)"/>
<path d="M0 0 C0.85722656 -0.00515625 1.71445313 -0.0103125 2.59765625 -0.015625 C4.9375 0.25 4.9375 0.25 7.9375 2.25 C7.9375 2.91 7.9375 3.57 7.9375 4.25 C8.55625 4.518125 9.175 4.78625 9.8125 5.0625 C11.9375 6.25 11.9375 6.25 13.9375 9.25 C14.34254796 15.80441246 13.42294979 22.14288749 12.5 28.625 C12.36529297 29.62144531 12.23058594 30.61789063 12.09179688 31.64453125 C11.07125235 38.9824953 11.07125235 38.9824953 9.9375 41.25 C9.57264063 43.39069835 9.2442707 45.53770849 8.9375 47.6875 C8.45929984 51.03116516 8.00604712 54.04435864 6.9375 57.25 C6.76784529 59.33612454 6.6367329 61.42547373 6.52734375 63.515625 C6.02527263 71.12205141 4.86996001 78.50715749 3.5 86 C3.28279297 87.25554687 3.06558594 88.51109375 2.84179688 89.8046875 C2.62716797 90.99835938 2.41253906 92.19203125 2.19140625 93.421875 C1.99877197 94.4953418 1.8061377 95.56880859 1.60766602 96.67480469 C0.9375 99.25 0.9375 99.25 -1.0625 101.25 C-1.13766846 100.45005615 -1.21283691 99.6501123 -1.2902832 98.82592773 C-2.99844242 79.37505744 -2.99844242 79.37505744 -6.51171875 60.1953125 C-7.14084051 56.83107271 -7.15236436 53.66484587 -7.0625 50.25 C-7.7225 50.25 -8.3825 50.25 -9.0625 50.25 C-9.24425781 48.47496094 -9.24425781 48.47496094 -9.4296875 46.6640625 C-10.40767784 36.70793344 -10.40767784 36.70793344 -12.1875 26.875 C-13.90462076 18.84330614 -14.25218778 11.15441272 -10.328125 3.7734375 C-7.48554916 0.35181844 -4.26932087 -0.02575759 0 0 Z " fill="#F8F6F0" transform="translate(103.0625,65.75)"/>
<path d="M0 0 C0.99 0.33 1.98 0.66 3 1 C2.34 2.65 1.68 4.3 1 6 C2.051875 6 3.10375 6 4.1875 6 C8.26846574 7.07041724 8.67237454 7.30588326 10.8125 10.625 C14.05406856 16.60697355 15.49650354 22.17307627 15 29 C14.67 29.94875 14.34 30.8975 14 31.875 C13.06089421 34.8097056 12.94569372 36.43608658 13.0625 39.4375 C13.18267103 43.9364028 11.83921224 46.88016458 10 51 C9.78304787 52.4517044 9.61896346 53.91200253 9.5 55.375 C8.9695998 61.7073289 6.91559971 67.38336852 4 73 C3.81595664 67.66274254 4.27440978 64.07526535 6 59 C6.33097985 56.39252458 6.55931823 53.79285646 6.75390625 51.171875 C7 49 7 49 8 47 C8.64620441 43.47812513 9.08285831 39.92297157 9.5625 36.375 C9.70107422 35.40175781 9.83964844 34.42851563 9.98242188 33.42578125 C11.74912969 23.84572072 11.74912969 23.84572072 9.7578125 14.72265625 C9.21898438 14.17480469 8.68015625 13.62695312 8.125 13.0625 C7.59132813 12.49660156 7.05765625 11.93070313 6.5078125 11.34765625 C3.74115411 8.87486572 1.73788803 8.86427926 -1.875 8.875 C-2.73867187 8.87242188 -3.60234375 8.86984375 -4.4921875 8.8671875 C-6.80665971 8.98976079 -8.78289116 9.35033555 -11 10 C-11.12375 10.5775 -11.2475 11.155 -11.375 11.75 C-12 14 -12 14 -13.0234375 15.7890625 C-15.86936937 22.23225226 -14.04805541 30.37522914 -12.51171875 37 C-11.33312623 43.90961112 -11.28950647 51.00613307 -11 58 C-10.34 58 -9.68 58 -9 58 C-8.66191314 60.06172613 -8.32972639 62.1244203 -8 64.1875 C-7.814375 65.33605469 -7.62875 66.48460938 -7.4375 67.66796875 C-7.06510523 70.50415393 -6.91403979 73.14719564 -7 76 C-7.66 75.67 -8.32 75.34 -9 75 C-9.39855383 72.65886528 -9.69313332 70.29971122 -9.9375 67.9375 C-10.59356919 62.17942431 -11.76661949 57.34069253 -14 52 C-14.185625 50.865625 -14.37125 49.73125 -14.5625 48.5625 C-14.706875 47.716875 -14.85125 46.87125 -15 46 C-15.66 45.67 -16.32 45.34 -17 45 C-18.29934469 41.69257716 -17.71175353 39.4006002 -17 36 C-16.65022629 31.01572457 -16.85301671 28.83111009 -20 25 C-19 22 -19 22 -18 21 C-18.226875 20.443125 -18.45375 19.88625 -18.6875 19.3125 C-19 17 -19 17 -17.1875 13.75 C-16.465625 12.8425 -15.74375 11.935 -15 11 C-14.34 11 -13.68 11 -13 11 C-13.33 9.68 -13.66 8.36 -14 7 C-9.375 4.875 -9.375 4.875 -6 6 C-6 5.34 -6 4.68 -6 4 C-4.125 2.9375 -4.125 2.9375 -2 2 C-1.34 2.33 -0.68 2.66 0 3 C0 2.01 0 1.02 0 0 Z " fill="#E8D59D" transform="translate(105,58)"/>
<path d="M0 0 C2.97216797 2.67138672 2.97216797 2.67138672 3.22265625 5.62890625 C3.16980469 6.59699219 3.11695312 7.56507813 3.0625 8.5625 C2.87096695 11.42906027 2.87096695 11.42906027 3 14 C3.66 14.66 4.32 15.32 5 16 C4.34 16 3.68 16 3 16 C3.80904735 22.19274872 3.80904735 22.19274872 6 28 C5.34 28 4.68 28 4 28 C4.66 28.99 5.32 29.98 6 31 C6.36141955 33.32914823 6.69699525 35.66253478 7 38 C7.33 38.33 7.66 38.66 8 39 C8.33 39.33 8.66 39.66 9 40 C8.979375 38.72125 8.95875 37.4425 8.9375 36.125 C8.875 32.25 8.875 32.25 10 30 C10.66 30 11.32 30 12 30 C12.35642993 45.12599527 11.23513313 60.05679023 10 75.125 C9.80664309 77.54812542 9.61393035 79.97130232 9.421875 82.39453125 C8.95532727 88.26363405 8.48088559 94.13205547 8 100 C7.67 100 7.34 100 7 100 C6.13390087 96.17528491 5.79029958 92.50076101 5.60546875 88.5859375 C5.5389209 87.28849609 5.47237305 85.99105469 5.40380859 84.65429688 C5.3689032 83.95941162 5.3339978 83.26452637 5.29803467 82.54858398 C4.45805194 66.03093361 3.02655037 49.59973469 1.32104492 33.14990234 C0.20039211 22.05740262 -0.22842993 11.1473807 0 0 Z " fill="#AA884E" transform="translate(96,199)"/>
<path d="M0 0 C0.33 0 0.66 0 1 0 C1.125 5.75 1.125 5.75 0 8 C-0.36485937 10.14069835 -0.6932293 12.28770849 -1 14.4375 C-1.47820016 17.78116516 -1.93145288 20.79435864 -3 24 C-3.16965471 26.08612454 -3.3007671 28.17547373 -3.41015625 30.265625 C-3.91222737 37.87205141 -5.06753999 45.25715749 -6.4375 52.75 C-6.65470703 54.00554687 -6.87191406 55.26109375 -7.09570312 56.5546875 C-7.31033203 57.74835938 -7.52496094 58.94203125 -7.74609375 60.171875 C-7.93872803 61.2453418 -8.1313623 62.31880859 -8.32983398 63.42480469 C-9 66 -9 66 -11 68 C-11.07516846 67.20005615 -11.15033691 66.4001123 -11.2277832 65.57592773 C-12.93594242 46.12505744 -12.93594242 46.12505744 -16.44921875 26.9453125 C-17.07834051 23.58107271 -17.08986436 20.41484587 -17 17 C-17.66 17 -18.32 17 -19 17 C-19.33 11.72 -19.66 6.44 -20 1 C-16.72143246 4.27856754 -16.50908203 5.11906962 -15.875 9.5 C-15.71773438 10.56605469 -15.56046875 11.63210937 -15.3984375 12.73046875 C-14.91934277 16.66186378 -14.5974738 20.59581812 -14.28125 24.54296875 C-13.90625679 27.81895106 -12.9352744 30.8434489 -12 34 C-11.56635145 36.99217502 -11.25952888 39.98809902 -11 43 C-9.515 42.505 -9.515 42.505 -8 42 C-8.020625 40.9275 -8.04125 39.855 -8.0625 38.75 C-8.01241076 35.74464552 -7.74906772 33.81388023 -7 31 C-6.67828182 28.96928204 -6.35769567 26.93836248 -6.0480957 24.90576172 C-4.72353478 16.29835767 -2.86896459 8.24281197 0 0 Z " fill="#F7EBCC" transform="translate(113,99)"/>
<path d="M0 0 C1.05016301 3.15048902 0.97157438 4.11658465 0.328125 7.25390625 C0.15966064 8.09961182 -0.00880371 8.94531738 -0.18237305 9.81665039 C-0.36968994 10.72278076 -0.55700684 11.62891113 -0.75 12.5625 C-1.12783936 14.46844589 -1.50411484 16.37470241 -1.87890625 18.28125 C-2.06855957 19.2403125 -2.25821289 20.199375 -2.45361328 21.1875 C-4.42623417 31.34147349 -6.18600801 41.47442311 -6.7890625 51.8125 C-7 54 -7 54 -8 56 C-8.34680806 58.52091574 -8.65588955 61.03431495 -8.9375 63.5625 C-9.63112772 69.48287123 -10.55213143 75.20852573 -12 81 C-12.66 80.67 -13.32 80.34 -14 80 C-14.02721176 78.10424749 -14.04649136 76.20838021 -14.0625 74.3125 C-14.07410156 73.25675781 -14.08570312 72.20101562 -14.09765625 71.11328125 C-14 68 -14 68 -13.45703125 65.328125 C-12.81554835 62.79795033 -12.81554835 62.79795033 -13.625 59.4375 C-14 56 -14 56 -12.5 53.8125 C-12.005 53.214375 -11.51 52.61625 -11 52 C-11.32843384 49.93618425 -11.32843384 49.93618425 -12 48 C-11.67 47.01 -11.34 46.02 -11 45 C-10.80785914 43.62832778 -10.64234848 42.2527299 -10.5 40.875 C-10 37 -10 37 -9 36 C-8.66659529 33.04195427 -8.66659529 33.04195427 -9 30 C-9.99 29.34 -10.98 28.68 -12 28 C-11 26 -11 26 -9.0625 25.3125 C-6.46231028 23.65783382 -6.0666522 22.05859916 -5.36328125 19.12890625 C-4.81130807 15.89422472 -4.56124469 12.64235118 -4.27734375 9.375 C-3.92757207 6.37977208 -3.20431423 3.76283852 -2 1 C-1.34 0.67 -0.68 0.34 0 0 Z " fill="#C2A977" transform="translate(121,144)"/>
<path d="M0 0 C0.33 0 0.66 0 1 0 C3.34489788 21.31084548 4.89933226 42.59132089 6 64 C6.33 61.36 6.66 58.72 7 56 C7.33 56 7.66 56 8 56 C8.02953635 60.22915147 8.04697584 64.45827572 8.0625 68.6875 C8.07087891 69.86634766 8.07925781 71.04519531 8.08789062 72.25976562 C8.10970358 80.22149544 7.73348042 88.07229225 7 96 C4.85231919 92.77847878 4.65823894 91.43866054 4.3671875 87.67578125 C4.28339844 86.64775391 4.19960937 85.61972656 4.11328125 84.56054688 C4.03464844 83.48869141 3.95601563 82.41683594 3.875 81.3125 C3.78863281 80.22904297 3.70226562 79.14558594 3.61328125 78.02929688 C3.40109343 75.35337265 3.19698842 72.67707901 3 70 C2.67 70 2.34 70 2 70 C2.01160156 68.73671875 2.02320312 67.4734375 2.03515625 66.171875 C2.10337819 55.10522744 1.94387678 44.06065017 1.5625 33 C1.52326416 31.80213867 1.48402832 30.60427734 1.44360352 29.37011719 C1.40162842 28.23735352 1.35965332 27.10458984 1.31640625 25.9375 C1.27974854 24.93589844 1.24309082 23.93429688 1.20532227 22.90234375 C0.99190363 19.88555336 0.50722459 16.97968983 0 14 C-0.06578002 11.54245859 -0.08569162 9.08331222 -0.0625 6.625 C-0.05347656 5.37976563 -0.04445313 4.13453125 -0.03515625 2.8515625 C-0.02355469 1.91054687 -0.01195313 0.96953125 0 0 Z " fill="#E1D5BE" transform="translate(97,230)"/>
<path d="M0 0 C2.35247313 3.52870969 2.50651783 6.34150149 2.75 10.4375 C2.80542969 11.10587891 2.86085937 11.77425781 2.91796875 12.46289062 C3.16298158 16.20861709 3.10855689 18.82905483 1 22 C2.32 22.33 3.64 22.66 5 23 C4.67 23.99 4.34 24.98 4 26 C2.7934375 26.556875 2.7934375 26.556875 1.5625 27.125 C-1.39658511 29.29018423 -1.36627432 29.69764593 -1.9375 33.125 C-2.8770792 38.59245609 -5.33510501 42.85288198 -9 47 C-10.32523587 47.6826215 -11.65808746 48.35077511 -13 49 C-13.66 49.99 -14.32 50.98 -15 52 C-15.66 52 -16.32 52 -17 52 C-17.4021875 53.2065625 -17.4021875 53.2065625 -17.8125 54.4375 C-18.4003125 55.7059375 -18.4003125 55.7059375 -19 57 C-20.485 57.495 -20.485 57.495 -22 58 C-22 58.66 -22 59.32 -22 60 C-22.66 60 -23.32 60 -24 60 C-22.4725953 54.56922772 -18.70221266 51.06360001 -15 47 C-13.28574696 45.03125001 -11.64260424 43.03164209 -10 41 C-9.566875 40.49210937 -9.13375 39.98421875 -8.6875 39.4609375 C-4.72032416 34.47835356 -3.36852461 29.15279763 -2 23 C-1.34 23 -0.68 23 0 23 C0 15.41 0 7.82 0 0 Z " fill="#F5EBCF" transform="translate(154,64)"/>
<path d="M0 0 C0.33 0 0.66 0 1 0 C1 6.93 1 13.86 1 21 C-3.29 21 -7.58 21 -12 21 C-8 14 -4 7 0 0 Z " fill="#393C3D" transform="translate(210,305)"/>
<path d="M0 0 C0.99 0.33 1.98 0.66 3 1 C1.91446312 8.7361679 -3.39860657 14.65878129 -9 19.8125 C-15.28486639 25.8039096 -18.93341771 33.97627255 -22 42 C-22.66 41.67 -23.32 41.34 -24 41 C-23.53680089 36.27536912 -22.90108294 32.82942948 -20 29 C-19.34 29 -18.68 29 -18 29 C-17.34 27.02 -16.68 25.04 -16 23 C-15.34 23 -14.68 23 -14 23 C-13.773125 22.278125 -13.54625 21.55625 -13.3125 20.8125 C-11.74537323 17.45437121 -9.671784 15.5381948 -7 13 C-6.34 12.01 -5.68 11.02 -5 10 C-4.34 10 -3.68 10 -3 10 C-2.01 6.7 -1.02 3.4 0 0 Z " fill="#D4BB81" transform="translate(147,93)"/>
<path d="M0 0 C2.7972908 2.06756277 3.02692273 3.14440371 3.6875 6.6875 C3.790625 7.780625 3.89375 8.87375 4 10 C5.32 10 6.64 10 8 10 C7.67 11.32 7.34 12.64 7 14 C6.34 14 5.68 14 5 14 C5.13277344 14.67804688 5.26554687 15.35609375 5.40234375 16.0546875 C6.47378866 21.7012804 7.30461154 27.27310643 7.75390625 33.00390625 C7.89569485 35.07006456 7.89569485 35.07006456 9 37 C9.0396713 38.66619446 9.04384447 40.33391013 9 42 C8.01 42.495 8.01 42.495 7 43 C5.09858282 38.83616901 4.34235083 34.71142475 3.7109375 30.21484375 C3.60278717 29.47673965 3.49463684 28.73863556 3.38320923 27.97816467 C3.15683749 26.42458824 2.93345234 24.87057403 2.71289062 23.31616211 C2.37547277 20.94082821 2.0283645 18.56706397 1.6796875 16.19335938 C1.46036734 14.67977001 1.2415985 13.16610063 1.0234375 11.65234375 C0.92034271 10.94496567 0.81724792 10.23758759 0.71102905 9.5087738 C0.25647163 6.28451526 0 3.2669153 0 0 Z " fill="#BA9A5B" transform="translate(88,155)"/>
<path d="M0 0 C0.33 0 0.66 0 1 0 C1.02509621 4.31925092 1.04304322 8.63846094 1.05493164 12.95776367 C1.05989824 14.42098736 1.06667378 15.88420625 1.07543945 17.34741211 C1.12950977 26.618882 0.88831598 35.75931051 0 45 C-0.33 45 -0.66 45 -1 45 C-2.17064733 40.37817094 -2.12797691 35.9306328 -2.09765625 31.19921875 C-2.0962413 30.36284378 -2.09482635 29.52646881 -2.09336853 28.66474915 C-2.08779184 26.005629 -2.07524365 23.3465945 -2.0625 20.6875 C-2.05748199 18.87955851 -2.05291961 17.0716157 -2.04882812 15.26367188 C-2.03783004 10.84241516 -2.0205815 6.42122207 -2 2 C-1.34 2 -0.68 2 0 2 C0 1.34 0 0.68 0 0 Z " fill="#A98747" transform="translate(104,254)"/>
<path d="M0 0 C0.33 0 0.66 0 1 0 C1.32250537 15.88380276 1.29421583 31.19611147 -1.63623047 46.84960938 C-2.26196788 50.54859942 -2.6202247 54.26861546 -3 58 C-3.33 58 -3.66 58 -4 58 C-4.24969186 48.37419769 -3.56589198 38.88150925 -2.77319336 29.29882812 C-2.56177853 26.74127215 -2.35745855 24.18322357 -2.15429688 21.625 C-2.02124349 19.97392523 -1.8877938 18.32288234 -1.75390625 16.671875 C-1.6934462 15.91960632 -1.63298615 15.16733765 -1.57069397 14.39227295 C-1.17015991 9.57510538 -0.62771736 4.7929858 0 0 Z " fill="#F2E5C5" transform="translate(109,228)"/>
<path d="M0 0 C0.66 0 1.32 0 2 0 C2.02708567 1.60407328 2.04643483 3.2082785 2.0625 4.8125 C2.07410156 5.70582031 2.08570312 6.59914062 2.09765625 7.51953125 C2 10 2 10 1 13 C0.81946436 15.71090029 0.67655015 18.41142319 0.5625 21.125 C0.26037364 27.29477254 -0.3680398 33.01614592 -2 39 C-2.66 38.67 -3.32 38.34 -4 38 C-4.02721176 36.10424749 -4.04649136 34.20838021 -4.0625 32.3125 C-4.07410156 31.25675781 -4.08570312 30.20101562 -4.09765625 29.11328125 C-4 26 -4 26 -3.45703125 23.328125 C-2.81554835 20.79795033 -2.81554835 20.79795033 -3.625 17.4375 C-4 14 -4 14 -2.5 11.8125 C-1.7575 10.9153125 -1.7575 10.9153125 -1 10 C-1.31229724 8.66158328 -1.64830932 7.32860925 -2 6 C-1.0625 2.75 -1.0625 2.75 0 0 Z " fill="#B08E55" transform="translate(111,186)"/>
<path d="M0 0 C2.46907752 1.36396621 4.11046547 2.46976786 5.90625 4.60546875 C5.24625 4.60546875 4.58625 4.60546875 3.90625 4.60546875 C3.90625 5.26546875 3.90625 5.92546875 3.90625 6.60546875 C3.24625 6.60546875 2.58625 6.60546875 1.90625 6.60546875 C1.41125 5.12046875 1.41125 5.12046875 0.90625 3.60546875 C-1.47572487 2.38638772 -1.47572487 2.38638772 -4.34375 1.48046875 C-5.29765625 1.14789062 -6.2515625 0.8153125 -7.234375 0.47265625 C-11.27527662 -0.75286309 -14.9915752 -1.53162845 -19.21875 -1.45703125 C-24.51021713 -1.37168501 -29.80167568 -1.39453125 -35.09375 -1.39453125 C-30.49723893 -10.58755339 -7.0709196 -3.11274178 0 0 Z " fill="#C8AF79" transform="translate(126.09375,29.39453125)"/>
<path d="M0 0 C9.66735686 8.83872627 12.37572419 18.71389735 13.25 31.71875 C13.40271739 40.19456522 13.40271739 40.19456522 11 45 C11 39.06 11 33.12 11 27 C10.01 26.67 9.02 26.34 8 26 C7.896875 24.72125 7.79375 23.4425 7.6875 22.125 C7.11866692 16.86329406 5.6625387 12.00852854 4 7 C3.34 7 2.68 7 2 7 C1.34 4.69 0.68 2.38 0 0 Z " fill="#D3BE8D" transform="translate(142,42)"/>
<path d="M0 0 C0.66 0.66 1.32 1.32 2 2 C2.99 2.33 3.98 2.66 5 3 C3.85573734 4.813492 2.70954608 6.62576725 1.5625 8.4375 C0.92441406 9.44683594 0.28632813 10.45617187 -0.37109375 11.49609375 C-2 14 -2 14 -3 15 C-4.66617115 15.04063832 -6.33388095 15.042721 -8 15 C-7.36511918 10.07967365 -5.54680948 5.25053721 -3 1 C-2.01 0.67 -1.02 0.34 0 0 Z " fill="#EBECE5" transform="translate(201,311)"/>
<path d="M0 0 C0.99 0.33 1.98 0.66 3 1 C2.34 2.65 1.68 4.3 1 6 C2.11375 6.12375 3.2275 6.2475 4.375 6.375 C8 7 8 7 10 9 C9.67 9.99 9.34 10.98 9 12 C8.67 11.01 8.34 10.02 8 9 C4.3416892 7.41533567 0.16852005 7.88935183 -3.75 7.9375 C-4.44738281 7.94201172 -5.14476563 7.94652344 -5.86328125 7.95117188 C-7.57555803 7.9628998 -9.28779033 7.98083347 -11 8 C-11.12503906 8.6084375 -11.25007813 9.216875 -11.37890625 9.84375 C-12.23548075 12.81751807 -14.04395577 14.62903729 -16 17 C-16.70885894 18.31138904 -17.39456452 19.63777017 -18 21 C-18.75 19.375 -18.75 19.375 -19 17 C-17.1875 13.75 -17.1875 13.75 -15 11 C-14.34 11 -13.68 11 -13 11 C-13.33 9.68 -13.66 8.36 -14 7 C-9.375 4.875 -9.375 4.875 -6 6 C-6 5.34 -6 4.68 -6 4 C-4.125 2.9375 -4.125 2.9375 -2 2 C-1.34 2.33 -0.68 2.66 0 3 C0 2.01 0 1.02 0 0 Z " fill="#E5CE8C" transform="translate(105,58)"/>
<path d="M0 0 C0 0.33 0 0.66 0 1 C-0.93199219 1.04898437 -1.86398438 1.09796875 -2.82421875 1.1484375 C-11.31778339 1.64654341 -19.60607297 2.54203291 -28 4 C-28 4.66 -28 5.32 -28 6 C-28.96099609 6.45439453 -28.96099609 6.45439453 -29.94140625 6.91796875 C-35.36659682 9.5456691 -40.20277542 12.34993782 -45 16 C-45.33 15.01 -45.66 14.02 -46 13 C-44.35 12.34 -42.7 11.68 -41 11 C-41 10.34 -41 9.68 -41 9 C-39.5390625 7.78125 -39.5390625 7.78125 -37.625 6.5 C-35.51732726 5.07753774 -33.80845027 3.80845027 -32 2 C-29.60171561 1.51555852 -27.2985781 1.15336852 -24.875 0.875 C-24.17375 0.79008301 -23.4725 0.70516602 -22.75 0.61767578 C-15.16648178 -0.22062683 -7.61761943 -0.18233664 0 0 Z " fill="#F5E9CC" transform="translate(110,24)"/>
<path d="M0 0 C0.33 0 0.66 0 1 0 C1.06058594 1.25296875 1.12117188 2.5059375 1.18359375 3.796875 C1.26802256 5.44792724 1.35266939 7.09896835 1.4375 8.75 C1.47681641 9.575 1.51613281 10.4 1.55664062 11.25 C1.59853516 12.04921875 1.64042969 12.8484375 1.68359375 13.671875 C1.72025146 14.4050293 1.75690918 15.13818359 1.79467773 15.89355469 C2.00114785 18.01177605 2.43132086 19.9519456 3 22 C3.66 22 4.32 22 5 22 C5.2475 22.9075 5.495 23.815 5.75 24.75 C7.05618237 28.14607416 8.39082822 29.55916188 11 32 C11.33 32.99 11.66 33.98 12 35 C12.66 35.33 13.32 35.66 14 36 C14 37.98 14 39.96 14 42 C7.2444519 35.82349888 0.82292225 26.67739048 -0.32055664 17.39892578 C-0.39094556 14.73395699 -0.35162591 12.10127154 -0.25 9.4375 C-0.23195312 8.52419922 -0.21390625 7.61089844 -0.1953125 6.66992188 C-0.14872701 4.44546486 -0.08335485 2.22333033 0 0 Z " fill="#D6BF8B" transform="translate(52,67)"/>
<path d="M0 0 C0.66 0 1.32 0 2 0 C2.35478937 15.07854832 1.25758381 29.97923168 0 45 C-0.33 45 -0.66 45 -1 45 C-1.19832847 41.1463114 -1.38171343 37.29204822 -1.5625 33.4375 C-1.61857422 32.35146484 -1.67464844 31.26542969 -1.73242188 30.14648438 C-1.98583586 24.58827092 -1.9316782 19.50725334 -1 14 C-0.95939638 11.89622513 -0.95723035 9.79123195 -1 7.6875 C-1.10977081 2.21954162 -1.10977081 2.21954162 0 0 Z " fill="#B3945A" transform="translate(106,229)"/>
<path d="M0 0 C0.33 0 0.66 0 1 0 C1.33 11.22 1.66 22.44 2 34 C0 34 0 34 -2.1875 31.875 C-4 29 -4 29 -3.75 26.1875 C-3.5025 25.135625 -3.255 24.08375 -3 23 C-2.89844765 20.32578819 -2.95383843 17.67737116 -3 15 C-2.34 15 -1.68 15 -1 15 C-0.67 10.05 -0.34 5.1 0 0 Z " fill="#F6F2E3" transform="translate(98,250)"/>
<path d="M0 0 C3.32812571 0.57381478 4.69842455 1.59380748 7 4 C7.66 4 8.32 4 9 4 C9.66 5.98 10.32 7.96 11 10 C11.66 10 12.32 10 13 10 C13.33 12.97 13.66 15.94 14 19 C14.66 19 15.32 19 16 19 C16.66 23.95 17.32 28.9 18 34 C17.34 33.67 16.68 33.34 16 33 C15.57405078 31.26668189 15.15888913 29.52976585 14.80761719 27.77978516 C13.21780541 19.86123057 10.85123005 14.37137645 5.609375 8.0390625 C4 6 4 6 4 4 C3.34 4 2.68 4 2 4 C1.34 2.68 0.68 1.36 0 0 Z " fill="#D6BB80" transform="translate(66,109)"/>
<path d="M0 0 C1.216875 0.04125 2.43375 0.0825 3.6875 0.125 C3.0275 0.785 2.3675 1.445 1.6875 2.125 C0.6975 2.125 -0.2925 2.125 -1.3125 2.125 C-1.6425 2.785 -1.9725 3.445 -2.3125 4.125 C-3.96947379 4.81540574 -5.6380761 5.4780635 -7.3125 6.125 C-11.54866959 8.46604109 -15.40037462 11.28679139 -19.3125 14.125 C-19.60546875 11.85546875 -19.60546875 11.85546875 -19.3125 9.125 C-17.30078125 7.17578125 -17.30078125 7.17578125 -14.625 5.4375 C-13.31982422 4.56544922 -13.31982422 4.56544922 -11.98828125 3.67578125 C-7.96750532 1.34549213 -4.68926778 -0.15895823 0 0 Z " fill="#C8A968" transform="translate(86.3125,28.875)"/>
<path d="M0 0 C0.99 0.33 1.98 0.66 3 1 C2.7834375 1.7734375 2.7834375 1.7734375 2.5625 2.5625 C2.01198944 4.94804574 1.64508818 7.3207528 1.3203125 9.74609375 C1.06633574 11.53322287 0.7842053 13.31634766 0.4921875 15.09765625 C-0.74348957 22.67705572 -1.83368033 29.43606863 0 37 C-0.99 37.495 -0.99 37.495 -2 38 C-2 37.34 -2 36.68 -2 36 C-2.66 36 -3.32 36 -4 36 C-3.63512837 23.72018232 -2.66549842 12.00312496 0 0 Z " fill="#CAB074" transform="translate(109,131)"/>
<path d="M0 0 C1.45050758 4.35152274 0.53749537 7.52188774 -1 11.75 C-1.83170862 14.45305301 -2.2010929 16.53833507 -2.4375 19.3125 C-3.03746971 25.65503696 -5.07545912 31.3661442 -8 37 C-8.18404336 31.66274254 -7.72559022 28.07526535 -6 23 C-5.82380568 21.41975718 -5.68105025 19.83560955 -5.5625 18.25 C-5.01140922 11.74516066 -3.64783336 5.47175004 0 0 Z " fill="#E7D093" transform="translate(117,94)"/>
<path d="M0 0 C0.85722656 -0.00515625 1.71445313 -0.0103125 2.59765625 -0.015625 C4.9375 0.25 4.9375 0.25 7.9375 2.25 C7.6075 2.91 7.2775 3.57 6.9375 4.25 C6.08865234 3.73373047 6.08865234 3.73373047 5.22265625 3.20703125 C2.48424063 2.06017343 1.23156395 2.25598474 -1.625 2.9375 C-2.77162109 3.19080078 -2.77162109 3.19080078 -3.94140625 3.44921875 C-6.36445181 4.36399654 -7.47544428 5.21359718 -9.0625 7.25 C-11.70099844 13.89562977 -11.27616826 21.23455878 -11.0625 28.25 C-11.3925 28.25 -11.7225 28.25 -12.0625 28.25 C-13.9096605 19.93777776 -14.39271403 11.41873591 -10.328125 3.7734375 C-7.48554916 0.35181844 -4.26932087 -0.02575759 0 0 Z " fill="#FCF6DD" transform="translate(103.0625,65.75)"/>
<path d="M0 0 C0 3 0 3 -0.984375 4.84765625 C-4.63790511 12.59032967 -1.45199871 23.96214998 0 32 C-2.14049846 29.85950154 -3.64627792 27.70744416 -5 25 C-4.95875 23.88625 -4.9175 22.7725 -4.875 21.625 C-5.01055278 17.69396924 -5.61584879 16.90244495 -8 14 C-7.67 13.01 -7.34 12.02 -7 11 C-6.34 11 -5.68 11 -5 11 C-5.103125 10.29875 -5.20625 9.5975 -5.3125 8.875 C-4.85789966 4.69267689 -2.83533849 3.04798887 0 0 Z " fill="#ECDAA6" transform="translate(93,69)"/>
<path d="M0 0 C0.33 0 0.66 0 1 0 C1.58125584 4.03284883 2.15025863 8.06723816 2.70898438 12.10327148 C2.89980766 13.46993122 3.09371094 14.83616522 3.29101562 16.2019043 C4.58441014 25.17317902 5.27888234 33.92567224 5 43 C3.13619574 39.52536292 2.69411492 36.95994428 2.5 33 C2.2302496 28.60061616 1.76816747 24.39010327 0.9375 20.0625 C-0.27149777 13.37271235 -0.18044191 6.77659613 0 0 Z " fill="#EBDDC2" transform="translate(92,187)"/>
<path d="M0 0 C5.3644368 5.91937854 6.9144896 12.3243427 8.4609375 19.96484375 C9.16461947 22.62149813 10.57488424 24.66799239 12 27 C12.1875 29.8125 12.1875 29.8125 12 32 C7.12313516 26.31032436 5.70483262 22.52676821 6 15 C5.34 15 4.68 15 4 15 C2.24265549 10.02638346 0.67415387 5.2584002 0 0 Z " fill="#F6EBCA" transform="translate(74,120)"/>
<path d="M0 0 C1.95045937 2.92568906 2.36393808 4.14701578 2.8515625 7.4921875 C2.98046875 8.36230469 3.109375 9.23242188 3.2421875 10.12890625 C3.43167969 11.48822266 3.43167969 11.48822266 3.625 12.875 C3.7590625 13.77347656 3.893125 14.67195312 4.03125 15.59765625 C4.63659691 19.77949155 5.07038122 23.7668043 5 28 C4.34 28.33 3.68 28.66 3 29 C2.93941406 28.32453125 2.87882812 27.6490625 2.81640625 26.953125 C2.73261719 26.06109375 2.64882812 25.1690625 2.5625 24.25 C2.48128906 23.36828125 2.40007812 22.4865625 2.31640625 21.578125 C1.77042085 16.91713606 1.77042085 16.91713606 -0.6875 13.0625 C-1.120625 12.381875 -1.55375 11.70125 -2 11 C-1.125 8.5 -1.125 8.5 0 6 C-0.38932856 3.85744207 -0.38932856 3.85744207 -1 2 C-0.67 1.34 -0.34 0.68 0 0 Z " fill="#CAAD66" transform="translate(96,136)"/>
<path d="M0 0 C5.8137919 0.32737857 10.09858025 0.64639702 15 4 C17.63760348 5.09775964 20.30697028 6.041464 23 7 C23 7.99 23 8.98 23 10 C23.639375 10.226875 24.27875 10.45375 24.9375 10.6875 C27 12 27 12 27.75 14.625 C27.87375 15.800625 27.87375 15.800625 28 17 C26.2925002 15.71937515 24.62626404 14.38232443 23 13 C23 12.34 23 11.68 23 11 C22.27425781 10.72027344 21.54851562 10.44054688 20.80078125 10.15234375 C18.17873729 9.07353905 15.70314108 7.86705701 13.1875 6.5625 C8.87242194 4.37584875 4.56104108 2.60481075 0 1 C0 0.67 0 0.34 0 0 Z " fill="#EEDFBB" transform="translate(114,25)"/>
<path d="M0 0 C0.33 0 0.66 0 1 0 C1 6.93 1 13.86 1 21 C-0.32 21 -1.64 21 -3 21 C-2.40075776 16.80530429 -1.42500059 12.99000166 0 9 C-0.66 9 -1.32 9 -2 9 C-2.66 10.32 -3.32 11.64 -4 13 C-4.66 13 -5.32 13 -6 13 C-4.58707905 8.1725201 -2.57025846 4.2837641 0 0 Z " fill="#4F514F" transform="translate(210,305)"/>
<path d="M0 0 C1.9375 0.3125 1.9375 0.3125 4 1 C4.33 1.99 4.66 2.98 5 4 C4.01 4.495 4.01 4.495 3 5 C1.71458668 8.44132808 1.86672955 11.92763626 1.875 15.5625 C1.87242188 16.69816406 1.86984375 17.83382812 1.8671875 19.00390625 C1.8652772 22.05233998 1.8652772 22.05233998 3 25 C2.34 25 1.68 25 1 25 C-0.63163336 22.12594877 -1.24944925 20.07585773 -1.23046875 16.77734375 C-1.22756836 15.59881836 -1.22756836 15.59881836 -1.22460938 14.39648438 C-1.21236328 13.58501953 -1.20011719 12.77355469 -1.1875 11.9375 C-1.18685547 11.12216797 -1.18621094 10.30683594 -1.18554688 9.46679688 C-1.15980554 5.98599679 -1.11145888 3.33437664 0 0 Z " fill="#CCAC66" transform="translate(54,64)"/>
<path d="M0 0 C1.52879528 3.05759055 0.59265959 5.54157825 0.0625 8.875 C-0.53750256 12.68163877 -1 16.14006758 -1 20 C-1.66 20.33 -2.32 20.66 -3 21 C-3.73075648 23.3140622 -4.40138258 25.64828869 -5 28 C-5.33 28 -5.66 28 -6 28 C-5.56367091 21.11059329 -4.91610155 14.64248536 -3 8 C-2.34 8 -1.68 8 -1 8 C-1.020625 6.865625 -1.04125 5.73125 -1.0625 4.5625 C-1 1 -1 1 0 0 Z " fill="#F5EDD2" transform="translate(125,134)"/>
<path d="M0 0 C1.32 0.33 2.64 0.66 4 1 C5.3357457 4.77371512 4.72408671 7.85831347 4.0625 11.75 C3.86785156 12.92046875 3.67320313 14.0909375 3.47265625 15.296875 C3.31667969 16.18890625 3.16070312 17.0809375 3 18 C2.34 17.67 1.68 17.34 1 17 C1.020625 16.030625 1.04125 15.06125 1.0625 14.0625 C1.35618499 11.12534105 1.35618499 11.12534105 0 10 C-0.07205511 8.31391034 -0.08386068 6.62499341 -0.0625 4.9375 C-0.05347656 4.01839844 -0.04445313 3.09929687 -0.03515625 2.15234375 C-0.02355469 1.44207031 -0.01195313 0.73179687 0 0 Z " fill="#B58D46" transform="translate(101,238)"/>
<path d="M0 0 C5.02123853 9.81629515 6.58193679 17.92703603 6 29 C3.76416287 25.6462443 3.5110569 23.64362798 3 19.6875 C2.41734847 15.2083664 1.43093945 11.27507944 0 7 C-0.07522969 4.66787973 -0.09325876 2.3314689 0 0 Z " fill="#CBB074" transform="translate(83,134)"/>
<path d="M0 0 C5.63689034 1.32632714 7.93185683 5.46631765 11 10 C10.67 10.66 10.34 11.32 10 12 C9.01 11.34 8.02 10.68 7 10 C6.34 10 5.68 10 5 10 C5 10.99 5 11.98 5 13 C4.34 13 3.68 13 3 13 C3.04125 12.21625 3.0825 11.4325 3.125 10.625 C3.28728734 7.83883881 3.28728734 7.83883881 1 6 C1.375 3.875 1.375 3.875 2 2 C1.34 2 0.68 2 0 2 C0 1.34 0 0.68 0 0 Z " fill="#C7A768" transform="translate(132,34)"/>
<path d="M0 0 C0.33 0 0.66 0 1 0 C1.14525497 8.05358138 0.71413279 15.97875848 0 24 C-0.33 24 -0.66 24 -1 24 C-2.17700048 19.37540756 -2.11408412 14.92133538 -2.0625 10.1875 C-2.05573242 9.00510742 -2.05573242 9.00510742 -2.04882812 7.79882812 C-2.03711312 5.86585239 -2.01917998 3.93291607 -2 2 C-1.34 2 -0.68 2 0 2 C0 1.34 0 0.68 0 0 Z " fill="#AC9873" transform="translate(104,275)"/>
<path d="M0 0 C0.66 0 1.32 0 2 0 C2.66 1.65 3.32 3.3 4 5 C3.01 5.33 2.02 5.66 1 6 C1 6.99 1 7.98 1 9 C0.34 9 -0.32 9 -1 9 C-1.33 10.32 -1.66 11.64 -2 13 C-2.99 13 -3.98 13 -5 13 C-4.48474397 7.71862571 -2.74522883 4.42778844 0 0 Z " fill="#D2BB84" transform="translate(61,44)"/>
<path d="M0 0 C0.33 0 0.66 0 1 0 C1.31042285 9.80706267 1.39925415 18.63181742 -2 28 C-2.33 28 -2.66 28 -3 28 C-3.02698189 26.37509046 -3.04638757 24.75005367 -3.0625 23.125 C-3.07410156 22.22007812 -3.08570312 21.31515625 -3.09765625 20.3828125 C-3 18 -3 18 -2 16 C-1.60772162 13.29127482 -1.25430502 10.59248307 -0.9375 7.875 C-0.84662109 7.12089844 -0.75574219 6.36679688 -0.66210938 5.58984375 C-0.43809148 3.72695812 -0.21861427 1.86352748 0 0 Z " fill="#F6EAD6" transform="translate(115,182)"/>
<path d="M0 0 C0.33 0 0.66 0 1 0 C1.3690205 9.41002278 1.3690205 9.41002278 -1 14 C-1.268125 13.401875 -1.53625 12.80375 -1.8125 12.1875 C-2.98493467 10.02775192 -4.19369282 8.64209744 -6 7 C-5 5 -5 5 -3 4.0625 C-0.65391779 3.1108154 -0.65391779 3.1108154 0 0 Z " fill="#B4975A" transform="translate(115,165)"/>
<path d="M0 0 C0.99 0.33 1.98 0.66 3 1 C2.01 2.485 2.01 2.485 1 4 C0.34 4 -0.32 4 -1 4 C-1.28617188 4.71542969 -1.57234375 5.43085937 -1.8671875 6.16796875 C-3.578125 10.4453125 -5.2890625 14.72265625 -7 19 C-7.33 19 -7.66 19 -8 19 C-8.31563182 13.73946963 -7.66590937 10.55426184 -5 6 C-4.34 6 -3.68 6 -3 6 C-3 5.01 -3 4.02 -3 3 C-1.5 1.3125 -1.5 1.3125 0 0 Z " fill="#FBF4DB" transform="translate(62,40)"/>
<path d="M0 0 C3.3920583 2.71364664 4.88891595 4.11132762 5.4375 8.5 C5.06489551 14.37134347 3.9890957 20.2067252 3 26 C2.67 26 2.34 26 2 26 C2.02320312 24.7934375 2.04640625 23.586875 2.0703125 22.34375 C2.08908665 20.72917291 2.10728507 19.11458906 2.125 17.5 C2.14175781 16.70851563 2.15851563 15.91703125 2.17578125 15.1015625 C2.21989226 9.72001921 1.50594058 5.17000073 0 0 Z " fill="#FBF3D5" transform="translate(112,70)"/>
<path d="M0 0 C-1.45305151 4.11697928 -3.32645794 7.54012204 -6 11 C-8.25 11.875 -8.25 11.875 -10 12 C-9.38333367 7.99166884 -7.38003195 5.22004322 -5 2 C-2 0 -2 0 0 0 Z " fill="#FAF2DB" transform="translate(151,100)"/>
<path d="M0 0 C2.475 0.495 2.475 0.495 5 1 C5 1.66 5 2.32 5 3 C4.34 3 3.68 3 3 3 C3.33 4.32 3.66 5.64 4 7 C3.34 7 2.68 7 2 7 C2.165 8.134375 2.33 9.26875 2.5 10.4375 C3.07576084 14.97060294 3.09505266 19.43747238 3 24 C2.67 24 2.34 24 2 24 C1.66252452 21.12543208 1.32989537 18.25043941 1 15.375 C0.90460938 14.56675781 0.80921875 13.75851563 0.7109375 12.92578125 C0.21746383 8.59026261 -0.11320717 4.37262689 0 0 Z " fill="#B39564" transform="translate(97,224)"/>
<path d="M0 0 C0.66 0.33 1.32 0.66 2 1 C1.91621094 1.72445312 1.83242187 2.44890625 1.74609375 3.1953125 C1.20472195 8.3349182 0.76278202 12.91365942 2 18 C1.34 18.33 0.68 18.66 0 19 C0 18.34 0 17.68 0 17 C-0.66 17 -1.32 17 -2 17 C-2.25706972 11.08739655 -1.2982126 5.76081841 0 0 Z " fill="#BFA15F" transform="translate(107,150)"/>
<path d="M0 0 C1.50076453 3.90198777 0.3744036 6.15166993 -1 10 C-2.0504595 13.98766665 -3.02735676 17.99270983 -4 22 C-4.33 22 -4.66 22 -5 22 C-5.59023856 14.47445832 -3.57558185 8.04406119 -1 1 C-0.67 0.67 -0.34 0.34 0 0 Z " fill="#DFC88F" transform="translate(114,109)"/>
<path d="M0 0 C0.99 0.33 1.98 0.66 3 1 C2.49890042 5.38462134 1.01704885 7.8000997 -2 11 C-2.66 11 -3.32 11 -4 11 C-4 11.66 -4 12.32 -4 13 C-4.66 12.67 -5.32 12.34 -6 12 C-5.67 11.34 -5.34 10.68 -5 10 C-4.34 10 -3.68 10 -3 10 C-2.01 6.7 -1.02 3.4 0 0 Z " fill="#D2B77D" transform="translate(147,93)"/>
<path d="M0 0 C6.41923331 0.29112169 10.62100206 1.45215029 16 5 C15.01 5.495 15.01 5.495 14 6 C14 6.66 14 7.32 14 8 C13.34 8 12.68 8 12 8 C11.67 7.01 11.34 6.02 11 5 C8.44598152 3.75049948 8.44598152 3.75049948 5.4375 2.8125 C4.42558594 2.46832031 3.41367188 2.12414062 2.37109375 1.76953125 C1.58863281 1.51558594 0.80617188 1.26164062 0 1 C0 0.67 0 0.34 0 0 Z " fill="#C6A667" transform="translate(116,28)"/>
<path d="M0 0 C3.32812571 0.57381478 4.69842455 1.59380748 7 4 C7.66 4 8.32 4 9 4 C9.33 6.97 9.66 9.94 10 13 C6.91910327 10.22719294 5.31224548 7.93673644 4 4 C3.34 4 2.68 4 2 4 C1.34 2.68 0.68 1.36 0 0 Z " fill="#D8C18B" transform="translate(66,109)"/>
<path d="M0 0 C0.99 0.33 1.98 0.66 3 1 C2.51421457 4.12290635 2.0013988 6.99580359 1 10 C0.01 10 -0.98 10 -2 10 C-2.33 8.35 -2.66 6.7 -3 5 C-2.34 5 -1.68 5 -1 5 C-0.67 3.35 -0.34 1.7 0 0 Z " fill="#2C3030" transform="translate(207,313)"/>
<path d="M0 0 C2.14336161 3.4766338 2.21277626 6.21229195 2.125 10.25 C2.10695313 11.32765625 2.08890625 12.4053125 2.0703125 13.515625 C2.03550781 14.74539062 2.03550781 14.74539062 2 16 C1.34 16.33 0.68 16.66 0 17 C-0.97040422 11.06975197 -0.89316269 5.93609666 0 0 Z " fill="#FAF2E1" transform="translate(95,226)"/>
<path d="M0 0 C0.66 0 1.32 0 2 0 C3.41030314 6.73811499 2.66561666 13.19022959 2 20 C1.67 20 1.34 20 1 20 C0.67 13.4 0.34 6.8 0 0 Z " fill="#AC8E5C" transform="translate(100,253)"/>
<path d="M0 0 C0.66 0 1.32 0 2 0 C1.85780436 2.20857055 1.71108153 4.41684987 1.5625 6.625 C1.48128906 7.85476562 1.40007812 9.08453125 1.31640625 10.3515625 C1.03336056 13.61532388 0.58961047 16.77943859 0 20 C-0.33 20 -0.66 20 -1 20 C-1.02888514 16.85418577 -1.04675923 13.70840531 -1.0625 10.5625 C-1.07087891 9.66466797 -1.07925781 8.76683594 -1.08789062 7.84179688 C-1.09111328 6.98779297 -1.09433594 6.13378906 -1.09765625 5.25390625 C-1.10551147 4.06776733 -1.10551147 4.06776733 -1.11352539 2.85766602 C-1 1 -1 1 0 0 Z " fill="#C7B285" transform="translate(116,162)"/>
<path d="M0 0 C0.66 0 1.32 0 2 0 C3.25664978 2.90600261 4 4.79604584 4 8 C2.35 8 0.7 8 -1 8 C-1.625 5.6875 -1.625 5.6875 -2 3 C-1.34 2.01 -0.68 1.02 0 0 Z " fill="#E8D295" transform="translate(89,96)"/>
<path d="M0 0 C0.33 0 0.66 0 1 0 C1 3.96 1 7.92 1 12 C-0.32 12 -1.64 12 -3 12 C-2.40075776 7.80530429 -1.42500059 3.99000166 0 0 Z " fill="#CFCFCC" transform="translate(210,314)"/>
<path d="M0 0 C3.41070706 3.41070706 3.64821034 4.33878697 4 9 C3.79066868 11.7018345 3.4162021 14.31780868 3 17 C2.67 17 2.34 17 2 17 C1.34 11.39 0.68 5.78 0 0 Z " fill="#BEA36A" transform="translate(88,155)"/>
<path d="M0 0 C2 2 2 2 2.23046875 3.91796875 C2.13989209 8.70206339 1.80325651 13.28086801 1 18 C0.67 18 0.34 18 0 18 C-1.21715636 12.06636277 -1.93703061 5.81109182 0 0 Z " fill="#CAAD6F" transform="translate(152,69)"/>
<path d="M0 0 C0.99 0 1.98 0 3 0 C3.125 7.75 3.125 7.75 2 10 C1.34 10 0.68 10 0 10 C0 6.7 0 3.4 0 0 Z " fill="#A28651" transform="translate(102,267)"/>
<path d="M0 0 C3.6130627 3.6130627 3.67217967 5.00073995 4 10 C3.79657173 12.70606913 3.42396398 15.31489478 3 18 C2.67 18 2.34 18 2 18 C1.34 12.06 0.68 6.12 0 0 Z " fill="#F4E8C7" transform="translate(98,130)"/>
<path d="M0 0 C0.99 0.33 1.98 0.66 3 1 C2.34 2.65 1.68 4.3 1 6 C-1.31 6 -3.62 6 -6 6 C-6 5.34 -6 4.68 -6 4 C-4.125 2.9375 -4.125 2.9375 -2 2 C-1.34 2.33 -0.68 2.66 0 3 C0 2.01 0 1.02 0 0 Z " fill="#E2C57B" transform="translate(105,58)"/>
<path d="M0 0 C0.33 0 0.66 0 1 0 C1.08117951 2.41734542 1.14056926 4.83194949 1.1875 7.25 C1.21263672 7.93191406 1.23777344 8.61382812 1.26367188 9.31640625 C1.31137459 12.59199289 1.21085076 14.65348556 -0.51171875 17.484375 C-1.00285156 17.98453125 -1.49398437 18.4846875 -2 19 C-1.85761163 16.95809019 -1.71092972 14.91647955 -1.5625 12.875 C-1.48128906 11.73804688 -1.40007812 10.60109375 -1.31640625 9.4296875 C-1.02269035 6.2459522 -0.56875687 3.14489093 0 0 Z " fill="#F5EBD1" transform="translate(118,162)"/>
<path d="M0 0 C3.55007718 3.9050849 4.81819916 6.97734643 6 12 C2.50995438 9.78963777 1.16102915 7.96684959 0 4 C0 2.68 0 1.36 0 0 Z " fill="#EFE0BC" transform="translate(74,120)"/>
<path d="M0 0 C0.33 0 0.66 0 1 0 C1.08075665 2.29109597 1.13907731 4.58299267 1.1875 6.875 C1.22230469 8.15117187 1.25710937 9.42734375 1.29296875 10.7421875 C1.19628906 11.81726563 1.09960938 12.89234375 1 14 C0.01 14.66 -0.98 15.32 -2 16 C-1.34 10.72 -0.68 5.44 0 0 Z " fill="#FDF9E9" transform="translate(120,158)"/>
<path d="M0 0 C0.66 0.99 1.32 1.98 2 3 C2.66 2.34 3.32 1.68 4 1 C4 1.99 4 2.98 4 4 C3.21625 4.2475 2.4325 4.495 1.625 4.75 C-1.32317108 6.15389099 -1.9024777 7.00675737 -3 10 C-2.49287967 6.28111761 -1.88391785 3.26545761 0 0 Z " fill="#F4EAD1" transform="translate(129,124)"/>
<path d="M0 0 C0.33 0 0.66 0 1 0 C1.08097324 2.27024968 1.13917704 4.54132075 1.1875 6.8125 C1.22230469 8.07707031 1.25710937 9.34164063 1.29296875 10.64453125 C1 14 1 14 -0.51171875 15.94921875 C-1.00285156 16.29597656 -1.49398437 16.64273437 -2 17 C-1.85941524 14.54126232 -1.71277001 12.08314825 -1.5625 9.625 C-1.52318359 8.92632812 -1.48386719 8.22765625 -1.44335938 7.5078125 C-1.11328125 2.2265625 -1.11328125 2.2265625 0 0 Z " fill="#F6F3E1" transform="translate(109,259)"/>
<path d="M0 0 C0.33 0 0.66 0 1 0 C1.33 3.63 1.66 7.26 2 11 C1.01 11.495 1.01 11.495 0 12 C-0.19477739 10.37585622 -0.38059458 8.75063577 -0.5625 7.125 C-0.66691406 6.22007812 -0.77132812 5.31515625 -0.87890625 4.3828125 C-1 2 -1 2 0 0 Z " fill="#C1A261" transform="translate(99,153)"/>
<path d="M0 0 C0.33 0.99 0.66 1.98 1 3 C0.34 3 -0.32 3 -1 3 C-1.103125 3.7425 -1.20625 4.485 -1.3125 5.25 C-2.04253504 8.17014018 -3.06789398 9.73187554 -5 12 C-4.10164835 4.21428571 -4.10164835 4.21428571 -2 1 C-1.34 0.67 -0.68 0.34 0 0 Z " fill="#FDF7E7" transform="translate(130,129)"/>
<path d="M0 0 C3.79371827 1.26457276 4.79962995 2.69944493 7 6 C7.75 9.3125 7.75 9.3125 8 12 C5.45868642 9.69716746 3.92889705 7.32686207 2.3125 4.3125 C1.87550781 3.50425781 1.43851563 2.69601563 0.98828125 1.86328125 C0.66214844 1.24839844 0.33601562 0.63351563 0 0 Z " fill="#FBF4DD" transform="translate(144,43)"/>
<path d="M0 0 C1.96662189 3.6592063 2.69113208 6.83028311 3 11 C2.34 11.66 1.68 12.32 1 13 C-0.32229189 10.35541621 -0.09677194 8.32238699 -0.0625 5.375 C-0.05347656 4.37210938 -0.04445313 3.36921875 -0.03515625 2.3359375 C-0.02355469 1.56507813 -0.01195313 0.79421875 0 0 Z " fill="#AD8D51" transform="translate(94,185)"/>
<path d="M0 0 C2.04119788 1.61594832 4.04072937 3.2856382 6 5 C6 5.66 6 6.32 6 7 C6.66 7 7.32 7 8 7 C7.67 7.66 7.34 8.32 7 9 C6.34 8.67 5.68 8.34 5 8 C5 7.34 5 6.68 5 6 C3.35 5.67 1.7 5.34 0 5 C0 3.35 0 1.7 0 0 Z " fill="#F6ECD3" transform="translate(62,106)"/>
<path d="M0 0 C0.66 0 1.32 0 2 0 C2.96661363 3.12180401 2.98988909 5.52083795 2.5625 8.75 C2.40974609 9.94882813 2.40974609 9.94882813 2.25390625 11.171875 C2.12822266 12.07679688 2.12822266 12.07679688 2 13 C1.67 13 1.34 13 1 13 C0.67 8.71 0.34 4.42 0 0 Z " fill="#B79F73" transform="translate(92,180)"/>
<path d="M0 0 C1.32 0.33 2.64 0.66 4 1 C3.67 2.32 3.34 3.64 3 5 C2.34 5 1.68 5 1 5 C0.67 5.66 0.34 6.32 0 7 C0 4.69 0 2.38 0 0 Z " fill="#F9F3E2" transform="translate(106,277)"/>
<path d="M0 0 C0.66 0 1.32 0 2 0 C2 2.31 2 4.62 2 7 C0.68 6.34 -0.64 5.68 -2 5 C-2 2 -2 2 0 0 Z " fill="#C19F58" transform="translate(112,168)"/>
<path d="M0 0 C1.34567923 2.69135846 0.77224621 4.13876894 0.1875 7.0625 C0.01605469 7.96097656 -0.15539062 8.85945312 -0.33203125 9.78515625 C-0.55246094 10.51605469 -0.77289063 11.24695313 -1 12 C-1.99 12.495 -1.99 12.495 -3 13 C-3 11.35 -3 9.7 -3 8 C-2.34 8 -1.68 8 -1 8 C-1.020625 6.865625 -1.04125 5.73125 -1.0625 4.5625 C-1 1 -1 1 0 0 Z " fill="#F1E5C4" transform="translate(125,134)"/>
<path d="M0 0 C0.75 1.75 0.75 1.75 1 4 C-0.9375 6.25 -0.9375 6.25 -3 8 C-3.33 7.34 -3.66 6.68 -4 6 C-2.68 4.02 -1.36 2.04 0 0 Z " fill="#E5C67A" transform="translate(92,57)"/>
<path d="M0 0 C0.99 0.33 1.98 0.66 3 1 C3.6875 3.0625 3.6875 3.0625 4 5 C3.34 5 2.68 5 2 5 C2 5.99 2 6.98 2 8 C1.34 8 0.68 8 0 8 C0 5.36 0 2.72 0 0 Z " fill="#D0AC62" transform="translate(135,39)"/>
<path d="M0 0 C0.80824219 0.11085938 1.61648437 0.22171875 2.44921875 0.3359375 C3.37154297 0.47902344 3.37154297 0.47902344 4.3125 0.625 C-0.06758443 3.20964442 -2.79875113 2.43979148 -7.6875 1.625 C-4.33422361 -0.61051759 -3.78006343 -0.54783528 0 0 Z " fill="#CFB57F" transform="translate(89.6875,27.375)"/>
<path d="M0 0 C1.0625 1.8125 1.0625 1.8125 2 4 C1.67 4.99 1.34 5.98 1 7 C0.34 7 -0.32 7 -1 7 C-1.33 7.99 -1.66 8.98 -2 10 C-1.125 2.25 -1.125 2.25 0 0 Z " fill="#D0B87F" transform="translate(55,57)"/>
<path d="M0 0 C0.33 0.99 0.66 1.98 1 3 C0.01 4.485 0.01 4.485 -1 6 C-1.38499891 7.65549531 -1.72793135 9.3222433 -2 11 C-2.33 11 -2.66 11 -3 11 C-3 8.36 -3 5.72 -3 3 C-2.01 2.67 -1.02 2.34 0 2 C0 1.34 0 0.68 0 0 Z " fill="#F9F2E2" transform="translate(108,283)"/>
</svg>
